<?xml version="1.0" encoding="utf-8"?>
<!-- Generator: Adobe Illustrator 24.0.1, SVG Export Plug-In . SVG Version: 6.00 Build 0)  -->
<svg version="1.1" id="Layer_1" width="25" height="25" xmlns="http://www.w3.org/2000/svg" xmlns:xlink="http://www.w3.org/1999/xlink" x="0px" y="0px"
	 viewBox="0 0 53.5 53.3" style="enable-background:new 0 0 53.5 53.3;" xml:space="preserve">
<title>Artboard 15</title>
<g>
	<path d="M31,26.8L51.7,6.1c1.1-1.2,1.1-3.1-0.1-4.2s-2.9-1.1-4.1,0L26.8,22.6L6.1,1.9C4.9,0.8,3,0.8,1.9,2s-1.1,2.9,0,4.1
		l20.7,20.7L1.9,47.5c-1.2,1.1-1.3,3-0.1,4.2s3,1.3,4.2,0.1c0.1,0,0.1-0.1,0.1-0.1L26.8,31l20.7,20.7c1.2,1.1,3.1,1.1,4.2-0.1
		s1.1-2.9,0-4.1L31,26.8z"/>
</g>
</svg>
