<svg xmlns="http://www.w3.org/2000/svg" xmlns:xlink="http://www.w3.org/1999/xlink" width="518.622" height="335.674" viewBox="0 0 518.622 335.674">
  <defs>
    <filter id="Rectangle_2348" x="0" y="0" width="292.409" height="335.674" filterUnits="userSpaceOnUse">
      <feOffset dy="3" input="SourceAlpha"/>
      <feGaussianBlur stdDeviation="3" result="blur"/>
      <feFlood flood-opacity="0.161"/>
      <feComposite operator="in" in2="blur"/>
      <feComposite in="SourceGraphic"/>
    </filter>
    <filter id="Rectangle_2348-2" x="226.214" y="0" width="292.409" height="335.673" filterUnits="userSpaceOnUse">
      <feOffset dy="3" input="SourceAlpha"/>
      <feGaussianBlur stdDeviation="3" result="blur-2"/>
      <feFlood flood-opacity="0.161"/>
      <feComposite operator="in" in2="blur-2"/>
      <feComposite in="SourceGraphic"/>
    </filter>
    <filter id="Rectangle_2348-3" x="124.411" y="0.138" width="269.802" height="331.913" filterUnits="userSpaceOnUse">
      <feOffset dy="3" input="SourceAlpha"/>
      <feGaussianBlur stdDeviation="3" result="blur-3"/>
      <feFlood flood-opacity="0.161"/>
      <feComposite operator="in" in2="blur-3"/>
      <feComposite in="SourceGraphic"/>
    </filter>
  </defs>
  <g id="Group_11229" data-name="Group 11229" transform="translate(-529.459 -9189.701)">
    <g id="Group_6518" data-name="Group 6518" transform="translate(538.459 9195.701)">
      <g transform="matrix(1, 0, 0, 1, -9, -6)" filter="url(#Rectangle_2348)">
        <rect id="Rectangle_2348-4" data-name="Rectangle 2348" width="225.147" height="279.855" rx="2" transform="translate(9 48.96) rotate(-11)" fill="#fff"/>
      </g>
      <path id="Rectangle_2349" data-name="Rectangle 2349" d="M2,0H223.147a2,2,0,0,1,2,2V178.855a0,0,0,0,1,0,0H0a0,0,0,0,1,0,0V2A2,2,0,0,1,2,0Z" transform="translate(0 42.96) rotate(-11)" fill="#fec736" opacity="0.449"/>
      <g id="Group_6512" data-name="Group 6512" transform="translate(60.672 245.866) rotate(-11)">
        <circle id="Ellipse_212" data-name="Ellipse 212" cx="23.786" cy="23.786" r="23.786" transform="translate(0 0)" fill="#eff1f2"/>
        <path id="Path_6506" data-name="Path 6506" d="M4.725,0H53.648a4.725,4.725,0,0,1,4.726,4.726h0a4.725,4.725,0,0,1-4.725,4.725H4.725A4.725,4.725,0,0,1,0,4.725H0A4.726,4.726,0,0,1,4.726,0Z" transform="translate(65.102 8.943)" fill="#eff1f2"/>
        <path id="Path_6507" data-name="Path 6507" d="M4.725,0h100.7a4.726,4.726,0,0,1,4.726,4.725h0a4.725,4.725,0,0,1-4.725,4.725H4.725A4.725,4.725,0,0,1,0,4.725H0A4.726,4.726,0,0,1,4.726,0Z" transform="translate(65.102 32.771)" fill="#eff1f2"/>
      </g>
      <path id="Path_6512" data-name="Path 6512" d="M0,109.651,51.052,31.682l46.435,43.46L166.832,0l58.7,74.377.044,35.274Z" transform="translate(12.767 109.776) rotate(-11)" fill="#fed873"/>
    </g>
    <g id="Group_6519" data-name="Group 6519" transform="translate(764.673 9195.701)">
      <g transform="matrix(1, 0, 0, 1, -235.21, -6)" filter="url(#Rectangle_2348-2)">
        <rect id="Rectangle_2348-5" data-name="Rectangle 2348" width="225.146" height="279.855" rx="2" transform="translate(456.22 323.67) rotate(-169)" fill="#fff"/>
      </g>
      <path id="Rectangle_2349-2" data-name="Rectangle 2349" d="M0,0H225.146a0,0,0,0,1,0,0V176.855a2,2,0,0,1-2,2H2a2,2,0,0,1-2-2V0A0,0,0,0,1,0,0Z" transform="translate(240.281 218.529) rotate(-169)" fill="#d9f4c9" opacity="0.449"/>
      <g id="Group_6512-2" data-name="Group 6512" transform="translate(41.015 213.853) rotate(10)">
        <ellipse id="Ellipse_212-2" data-name="Ellipse 212" cx="23.786" cy="23.786" rx="23.786" ry="23.786" transform="translate(0 0)" fill="#eff1f2"/>
        <path id="Path_6506-2" data-name="Path 6506" d="M4.725,9.451H53.648a4.725,4.725,0,0,0,4.726-4.726h0A4.725,4.725,0,0,0,53.648,0H4.725A4.725,4.725,0,0,0,0,4.725H0A4.726,4.726,0,0,0,4.726,9.451Z" transform="translate(65.102 29.179)" fill="#eff1f2"/>
        <path id="Path_6507-2" data-name="Path 6507" d="M4.725,9.451h100.7a4.726,4.726,0,0,0,4.726-4.725h0A4.725,4.725,0,0,0,105.426,0H4.725A4.725,4.725,0,0,0,0,4.725H0A4.726,4.726,0,0,0,4.726,9.451Z" transform="translate(65.102 5.351)" fill="#eff1f2"/>
      </g>
      <path id="Path_6512-2" data-name="Path 6512" d="M0,0,51.052,77.969l46.435-43.46,69.345,75.142,58.7-74.376L225.579,0Z" transform="translate(240.719 217.412) rotate(-169)" fill="#c6e7ae"/>
    </g>
    <g id="Group_6513" data-name="Group 6513" transform="translate(662.443 9195.839)">
      <g transform="matrix(1, 0, 0, 1, -132.98, -6.14)" filter="url(#Rectangle_2348-3)">
        <rect id="Rectangle_2348-6" data-name="Rectangle 2348" width="251.802" height="313.913" rx="2" transform="translate(133.41 6.14)" fill="#fff"/>
      </g>
      <path id="Rectangle_2349-3" data-name="Rectangle 2349" d="M2,0H249.8a2,2,0,0,1,2,2V199.763a0,0,0,0,1,0,0H0a0,0,0,0,1,0,0V2A2,2,0,0,1,2,0Z" transform="translate(0.427 0)" fill="#5096ff" opacity="0.26"/>
      <g id="Group_6512-3" data-name="Group 6512" transform="translate(23.614 235.767)" opacity="0.287">
        <circle id="Ellipse_212-3" data-name="Ellipse 212" cx="26.675" cy="26.675" r="26.675" transform="translate(0 0)" fill="#cbd1d3"/>
        <path id="Path_6506-3" data-name="Path 6506" d="M5.3,0H60.162a5.3,5.3,0,0,1,5.3,5.3h0a5.3,5.3,0,0,1-5.3,5.3H5.3A5.3,5.3,0,0,1,0,5.3H0A5.3,5.3,0,0,1,5.3,0Z" transform="translate(73.008 10.029)" fill="#cbd1d3"/>
        <path id="Path_6507-3" data-name="Path 6507" d="M5.3,0H118.227a5.3,5.3,0,0,1,5.3,5.3h0a5.3,5.3,0,0,1-5.3,5.3H5.3A5.3,5.3,0,0,1,0,5.3H0A5.3,5.3,0,0,1,5.3,0Z" transform="translate(73.008 36.75)" fill="#cbd1d3"/>
      </g>
      <path id="Path_6512-3" data-name="Path 6512" d="M0,122.966,57.252,35.529l52.074,48.737L187.091,0l65.832,83.408.049,39.558Z" transform="translate(0 75.704)" fill="#85b6ff" opacity="0.004"/>
    </g>
    <g id="Group_11228" data-name="Group 11228" transform="translate(538.584 9044.275)">
      <g id="Path_6215" data-name="Path 6215">
        <path id="Path_7012" data-name="Path 7012" d="M294.659,308.4c-.12,0-.24,0-.361,0l-87.842.118A20.482,20.482,0,0,1,188.667,277.8l43.818-76.132a20.493,20.493,0,0,1,35.5-.047L312,277.638a20.523,20.523,0,0,1,2.756,9.884c0,.12,0,.239,0,.358A20.517,20.517,0,0,1,294.659,308.4Zm-97.486-27.33-.705,1.225a11.494,11.494,0,0,0,9.976,17.227l87.841-.118a11.513,11.513,0,0,0,11.478-11.509c0-.068,0-.134,0-.2a11.484,11.484,0,0,0-1.545-5.544l-44.023-76.013a11.492,11.492,0,0,0-19.9.028Z" fill="#a9c7f2"/>
      </g>
      <g id="Group_6516" data-name="Group 6516">
        <g id="Ellipse_197" data-name="Ellipse 197">
          <circle id="Ellipse_500" data-name="Ellipse 500" cx="9.418" cy="9.418" r="9.418" transform="matrix(0.012, -1, 1, 0.012, 241.256, 288.427)" fill="#a9c7f2"/>
        </g>
        <g id="Path_6217" data-name="Path 6217">
          <path id="Path_7013" data-name="Path 7013" d="M252.835,256.633l-3.578-.042a5.355,5.355,0,0,1-5.292-5.417l.231-19.814a5.356,5.356,0,0,1,5.417-5.292l3.578.042a5.354,5.354,0,0,1,5.292,5.417h0l-.231,19.814A5.356,5.356,0,0,1,252.835,256.633Z" fill="#a9c7f2"/>
        </g>
      </g>
    </g>
  </g>
</svg>
