<svg xmlns="http://www.w3.org/2000/svg" width="112.96" height="112.96" viewBox="0 0 112.96 112.96">
  <g id="Group_26" data-name="Group 26" transform="translate(-391 637)">
    <rect id="Rectangle_15" data-name="Rectangle 15" width="112.96" height="112.96" transform="translate(391 -637)" fill="none"/>
    <g id="Group_35" data-name="Group 35" transform="translate(-10413 7142)">
      <rect id="Rectangle_23" data-name="Rectangle 23" width="112.008" height="112.008" transform="translate(10804 -7779)" fill="none"/>
      <path id="iconmonstr-vk-1" d="M61.4,70.284c2.841,0,4-1.894,3.97-4.269-.145-8.943,3.331-13.758,9.605-7.483,6.942,6.942,8.379,11.752,16.809,11.752h14.928c3.769,0,5.253-1.213,5.253-3.116,0-4.026-6.629-11.131-12.246-16.347-7.866-7.3-8.234-7.474-1.46-16.263,8.4-10.912,19.393-24.893,9.671-24.893H89.361c-3.6,0-3.863,2.029-5.146,5.052C79.574,25.665,70.751,39.848,67.4,37.678c-3.5-2.263-1.9-11.225-1.633-24.544.07-3.517.051-5.929-5.323-7.18A37.647,37.647,0,0,0,52.007,5C41.4,5,34.088,9.446,38.245,10.22c7.329,1.367,6.625,17.224,4.917,24.073C40.186,46.218,29,24.851,24.338,14.21c-1.124-2.557-1.468-4.545-5.481-4.545H3.671c-2.3,0-3.671.747-3.671,2.407,0,2.808,13.809,31.351,26.993,45.579C39.85,71.53,52.558,70.284,61.4,70.284Z" transform="translate(10804.991 -7760.21)" fill="#1c8ce4"/>
    </g>
  </g>
</svg>
