<svg xmlns="http://www.w3.org/2000/svg" xmlns:xlink="http://www.w3.org/1999/xlink" width="240.48" height="71.25" viewBox="0 0 240.48 71.25"><defs><style>.cls-1{fill:#fff;}.cls-2{fill:url(#linear-gradient);}.cls-3{fill:url(#linear-gradient-2);}.cls-4{fill:url(#linear-gradient-3);}.cls-5{fill:url(#linear-gradient-4);}.cls-6{fill:url(#linear-gradient-5);}.cls-7{fill:url(#linear-gradient-6);}.cls-8{fill:url(#linear-gradient-7);}.cls-9{fill:url(#linear-gradient-8);}.cls-10{fill:url(#linear-gradient-9);}.cls-11{fill:#606060;}</style><linearGradient id="linear-gradient" x1="36.42" y1="60.72" x2="36.42" y2="10.35" gradientUnits="userSpaceOnUse"><stop offset="0" stop-color="#c20e5e"/><stop offset="1" stop-color="#613986"/></linearGradient><linearGradient id="linear-gradient-2" x1="36.45" y1="64.31" x2="36.45" y2="6.88" xlink:href="#linear-gradient"/><linearGradient id="linear-gradient-3" x1="166.78" y1="46.59" x2="67.94" y2="46.59" xlink:href="#linear-gradient"/><linearGradient id="linear-gradient-4" x1="166.78" y1="46.62" x2="67.94" y2="46.62" xlink:href="#linear-gradient"/><linearGradient id="linear-gradient-5" x1="166.78" y1="35.61" x2="67.94" y2="35.61" xlink:href="#linear-gradient"/><linearGradient id="linear-gradient-6" x1="166.78" y1="41.16" x2="67.94" y2="41.16" xlink:href="#linear-gradient"/><linearGradient id="linear-gradient-7" x1="166.78" y1="41.1" x2="67.94" y2="41.1" xlink:href="#linear-gradient"/><linearGradient id="linear-gradient-8" x1="166.78" y1="41.09" x2="67.94" y2="41.09" xlink:href="#linear-gradient"/><linearGradient id="linear-gradient-9" x1="166.78" y1="35.62" x2="67.94" y2="35.62" xlink:href="#linear-gradient"/></defs><title>logo</title><g id="Layer_2" data-name="Layer 2"><g id="Layer_1-2" data-name="Layer 1"><rect class="cls-1" width="240.48" height="71.25" rx="35.63" ry="35.63"/><path class="cls-2" d="M56.3,20.08a25.69,25.69,0,1,0,5.17,15.45A25.1,25.1,0,0,0,56.3,20.08Z"/><path class="cls-3" d="M64.86,35.6a26.38,26.38,0,0,0-1-7.46C61.62,18.93,55.7,12.37,46.5,8.9,36.38,5.09,26.8,6.71,18.36,13.53A27.87,27.87,0,0,0,8,35.6,27.87,27.87,0,0,0,18.36,57.67c8.44,6.82,18,8.44,28.14,4.63,9.2-3.47,15.12-10,17.4-19.24A26.38,26.38,0,0,0,64.86,35.6Zm-23,25.94c-15,3.36-29.6-7.46-31.59-22.42,0,0,0-.1,0-.16s0-.38-.07-.57-.06-.67-.08-1c0,0,0-.06,0-.09,0-.39,0-.78,0-1.17v-1c0-.39,0-.78,0-1.16,0,0,0-.06,0-.09,0-.34.05-.68.08-1,0-.19.05-.38.07-.57s0-.1,0-.15c2-15,16.54-25.79,31.59-22.42A26.65,26.65,0,0,1,57.62,19.74l.3.41.09.13a26.65,26.65,0,0,1,2.6,4.59l0,.07.14.33a26.78,26.78,0,0,1,2.08,9.27v.14c0,.19,0,.38,0,.57s0,.23,0,.35,0,.23,0,.35,0,.38,0,.57v.13a26.84,26.84,0,0,1-2.08,9.28c0,.1-.09.21-.14.32s0,0,0,.08A26.57,26.57,0,0,1,58,50.91l-.09.13-.3.42A26.7,26.7,0,0,1,41.87,61.54Z"/><polygon class="cls-1" points="18.34 25.16 18.34 36.5 28.93 36.5 28.93 50.06 44.5 36.45 54.5 36.45 54.5 25.16 18.34 25.16"/><path class="cls-4" d="M118.73,30.51a10.28,10.28,0,0,0-8.09,8.35A10.28,10.28,0,0,0,115.07,50c3.76,2.62,7.77,2.63,11.78.4.31-.17.6-.35,1.2-.7a26.53,26.53,0,0,1-.22,3.76A6.68,6.68,0,0,1,122,58.81a6.8,6.8,0,0,1-6.73-3.59c-.75-1.29-1.89-1.69-3-1a2.12,2.12,0,0,0-.67,3,10.9,10.9,0,0,0,20.52-4.87c0-3.81,0-7.62,0-11.42A10.85,10.85,0,0,0,118.73,30.51Zm2.59,17.31A6.72,6.72,0,1,1,128,41,6.7,6.7,0,0,1,121.32,47.82Z"/><path class="cls-5" d="M143.25,30.53a10.23,10.23,0,0,0-8.1,8.55A10.28,10.28,0,0,0,139.57,50c3.79,2.66,7.82,2.68,11.86.41l.9-.51.41.16a22.44,22.44,0,0,1-.69,4.45,6.25,6.25,0,0,1-5.85,4.32,6.51,6.51,0,0,1-6.34-3.59c-.74-1.28-1.82-1.68-2.92-1.11a2.1,2.1,0,0,0-.8,3,10.94,10.94,0,0,0,11.43,5.74c4.74-.82,8.68-4.69,9-9.28a127.51,127.51,0,0,0,.13-13A10.77,10.77,0,0,0,143.25,30.53Zm2.61,17.29a6.72,6.72,0,1,1,6.71-6.72A6.76,6.76,0,0,1,145.86,47.82Z"/><path class="cls-6" d="M168.24,30.37A33.91,33.91,0,0,0,163.56,32v-1c0-3.12,0-6.24,0-9.37a2.16,2.16,0,0,0-2.14-2.39,2.13,2.13,0,0,0-2,2.41q0,9.75,0,19.52a10.88,10.88,0,1,0,21.51-2.48A10.76,10.76,0,0,0,168.24,30.37Zm2.06,17.41A6.77,6.77,0,1,1,177,41,6.73,6.73,0,0,1,170.3,47.78Z"/><path class="cls-7" d="M97.1,30.3a10.89,10.89,0,0,0-10.87,8.23c-1.22,5.19,1,10.18,5.7,12.32a10.93,10.93,0,0,0,11.38-.92c.1.19.17.3.22.42.51,1.2,1.36,1.77,2.37,1.58s1.67-1,1.67-2.38c0-3,.05-5.92,0-8.88A10.55,10.55,0,0,0,97.1,30.3Zm-.25,17.51A6.67,6.67,0,0,1,90,41.23a7,7,0,0,1,6.9-6.81,6.73,6.73,0,0,1,6.52,6.9A6.42,6.42,0,0,1,96.85,47.81Z"/><path class="cls-8" d="M194.71,30.23a10.88,10.88,0,1,0,10.93,10.86A10.81,10.81,0,0,0,194.71,30.23Zm0,17.6a6.73,6.73,0,1,1,6.83-6.69A6.77,6.77,0,0,1,194.73,47.83Z"/><path class="cls-9" d="M225.09,48.39c-1.64-2.14-3.27-4.3-5-6.4a1.19,1.19,0,0,1,0-1.76c1.67-2.07,3.28-4.21,4.9-6.32.95-1.22.91-2.5-.1-3.27s-2.18-.52-3.18.75c-.56.71-1.11,1.44-1.67,2.15-1,1.33-2.07,2.66-3.2,4.13-.33-.4-.55-.63-.74-.88-1.46-1.88-2.89-3.76-4.36-5.63a2,2,0,0,0-3.51.06,2.15,2.15,0,0,0,.27,2.54c1.7,2.18,3.36,4.39,5.08,6.55a1.08,1.08,0,0,1,0,1.6c-1.7,2.13-3.35,4.3-5,6.47a2.11,2.11,0,0,0,.12,3.12c1,.81,2.21.6,3.13-.57s1.91-2.46,2.87-3.7l2.1-2.67c.3.35.51.58.7.83,1.48,1.89,2.93,3.81,4.44,5.69a2.05,2.05,0,0,0,3.35.08A2.16,2.16,0,0,0,225.09,48.39Z"/><path class="cls-10" d="M84.75,48.19c-.58,0-1.17,0-1.75,0a2.27,2.27,0,0,1-2.37-2.32c0-4.33,0-13,0-13v-.81h3.75a2,2,0,0,0,2.26-1.91c0-1.18-.84-2-2.25-2-.85,0-3.77,0-3.77,0V27s0-1.89,0-2.83,0-2,0-3a2.33,2.33,0,0,0-.28-1.1,1.82,1.82,0,0,0-2.19-.84A1.77,1.77,0,0,0,76.71,21c0,2,0,6.14,0,6.14v1s-2.21,0-2.81.09a1.8,1.8,0,0,0-1.47,2A1.84,1.84,0,0,0,74.13,32c.45.05,2.59,0,2.59,0v1.19s0,8.32,0,12.49,3.36,7.2,8.44,6.29a1.86,1.86,0,0,0,1.47-2A1.93,1.93,0,0,0,84.75,48.19Z"/><path class="cls-11" d="M115.5,11.11a2.9,2.9,0,0,1-1.91.56H112v2.74h-1.59V6.78h3.28a2.66,2.66,0,0,1,1.81.59,2.29,2.29,0,0,1,.67,1.83A2.35,2.35,0,0,1,115.5,11.11Zm-1.21-2.75a1.3,1.3,0,0,0-.85-.25H112v2.24h1.44a1.26,1.26,0,0,0,.85-.27,1.12,1.12,0,0,0,.3-.87A1.06,1.06,0,0,0,114.29,8.36Z"/><path class="cls-11" d="M123.86,13.74a4,4,0,0,1-5,0,4.1,4.1,0,0,1-1.16-3.15,4,4,0,0,1,1.16-3.15,4,4,0,0,1,5,0A4,4,0,0,1,125,10.59,4.14,4.14,0,0,1,123.86,13.74Zm-1-1.16a3.08,3.08,0,0,0,.56-2,3.08,3.08,0,0,0-.56-2,1.8,1.8,0,0,0-1.5-.7,1.82,1.82,0,0,0-1.51.7,3.06,3.06,0,0,0-.57,2,3.08,3.08,0,0,0,.57,2,1.84,1.84,0,0,0,1.51.69A1.82,1.82,0,0,0,122.86,12.58Z"/><path class="cls-11" d="M127.8,6.78l1,4.37.22,1.22.22-1.19.86-4.4h1.68l.91,4.37.23,1.22.24-1.17,1-4.42h1.62l-2.15,7.63h-1.52L131.21,10l-.27-1.48L130.68,10l-.93,4.46h-1.48l-2.16-7.63Z"/><path class="cls-11" d="M143,8.13h-4V9.75h3.71v1.33h-3.71v2h4.22v1.37h-5.78V6.78H143Z"/><path class="cls-11" d="M149.8,7a1.87,1.87,0,0,1,.71.53,2.34,2.34,0,0,1,.39.64A2.29,2.29,0,0,1,151,9a2.36,2.36,0,0,1-.27,1.07,1.58,1.58,0,0,1-.91.74,1.44,1.44,0,0,1,.75.6,2.61,2.61,0,0,1,.22,1.2v.51a3.78,3.78,0,0,0,0,.71.64.64,0,0,0,.29.43v.19H149.4a3.4,3.4,0,0,1-.1-.41,4.62,4.62,0,0,1-.07-.65v-.71a1.45,1.45,0,0,0-.25-1,1.31,1.31,0,0,0-.91-.24H146.5v3h-1.56V6.78h3.66A3.3,3.3,0,0,1,149.8,7Zm-3.3,1.13v2.05h1.72A1.72,1.72,0,0,0,149,10a.85.85,0,0,0,.45-.86,1,1,0,0,0-.44-.93,1.58,1.58,0,0,0-.74-.13Z"/><path class="cls-11" d="M158.74,8.13h-4V9.75h3.71v1.33H154.7v2h4.23v1.37h-5.79V6.78h5.6Z"/><path class="cls-11" d="M165.17,7a2.56,2.56,0,0,1,1.31,1A3.6,3.6,0,0,1,167,9.15a5.65,5.65,0,0,1,.14,1.26,5,5,0,0,1-.61,2.58A2.75,2.75,0,0,1,164,14.41H160.7V6.78H164A3.83,3.83,0,0,1,165.17,7Zm-2.92,1.16v5h1.47A1.59,1.59,0,0,0,165.3,12a3.93,3.93,0,0,0,.24-1.45,3.63,3.63,0,0,0-.36-1.79,1.55,1.55,0,0,0-1.46-.62Z"/><path class="cls-11" d="M178.06,7.59a2,2,0,0,1,.35,1.17,1.72,1.72,0,0,1-.35,1.12,1.84,1.84,0,0,1-.58.44,1.67,1.67,0,0,1,.88.67,2,2,0,0,1,.3,1.12,2.31,2.31,0,0,1-.34,1.22,2.41,2.41,0,0,1-.55.6,2.17,2.17,0,0,1-.86.38,5.22,5.22,0,0,1-1.08.1h-3.44V6.78h3.69A2.36,2.36,0,0,1,178.06,7.59Zm-4.14.52V9.79h1.85a1.52,1.52,0,0,0,.81-.19.72.72,0,0,0,.31-.67.68.68,0,0,0-.41-.7,2.88,2.88,0,0,0-.9-.12Zm0,2.94v2h1.85a1.76,1.76,0,0,0,.77-.14A.94.94,0,0,0,177,12a.82.82,0,0,0-.48-.82,2.13,2.13,0,0,0-.76-.13Z"/><path class="cls-11" d="M184.91,6.78h1.81l-2.55,4.77v2.86h-1.6V11.55l-2.64-4.77h1.88l1.59,3.33Z"/><path class="cls-11" d="M101.75,11.6H79a1,1,0,0,1,0-2h22.76a1,1,0,0,1,0,2Z"/><path class="cls-11" d="M217.75,11.6H195a1,1,0,0,1,0-2h22.76a1,1,0,0,1,0,2Z"/></g></g></svg>